<?xml version="1.0" encoding="utf-8"?>
<svg xmlns="http://www.w3.org/2000/svg" fill="none" height="48" viewBox="0 0 164 48" width="164">
  <path d="m50.401 21.636 2.657-3.168c1.698 1.349 3.59 2.06 5.582 2.06 1.279 0 1.97-.44 1.97-1.177v-.047c0-.711-.566-1.104-2.903-1.643-3.664-.836-6.494-1.866-6.494-5.4v-.048c0-3.19 2.536-5.496 6.666-5.496 2.93 0 5.215.784 7.086 2.284l-2.385 3.363c-1.577-1.104-3.296-1.695-4.821-1.695-1.158 0-1.72.492-1.72 1.104v.047c0 .785.592 1.13 2.977 1.669 3.962.857 6.42 2.133 6.42 5.35v.047c0 3.509-2.778 5.595-6.96 5.595-3.05 0-5.954-.957-8.066-2.845M66.758 19.601v-8.686h4.674v7.19c0 1.448.76 2.233 1.893 2.233 1.132 0 1.944-.785 1.944-2.233v-7.19h4.674v13.277H75.27v-1.815c-.86 1.104-2.091 2.112-3.984 2.112-2.83 0-4.527-1.866-4.527-4.884M82.45 10.91h4.674v1.867c.86-1.103 2.09-2.16 3.983-2.16 2.83 0 4.528 1.867 4.528 4.884v8.687H90.96v-7.19c0-1.45-.76-2.234-1.87-2.234s-1.966.785-1.966 2.233v7.19h-4.675V10.912ZM97.501 17.61v-.048c0-3.755 2.929-6.923 7.133-6.923 2.731 0 4.549 1.177 5.681 2.97l-3.171 2.354c-.639-.884-1.352-1.397-2.484-1.397-1.499 0-2.605 1.323-2.605 2.944v.048c0 1.72 1.08 3.017 2.657 3.017 1.106 0 1.819-.513 2.557-1.375l3.124 2.259c-1.231 1.815-3.003 3.043-5.927 3.043-4.01 0-6.96-3.142-6.96-6.897M111.132 17.61v-.048c0-3.78 3.098-6.945 7.379-6.945 4.282 0 7.332 3.117 7.332 6.898v.047c0 3.78-3.098 6.944-7.379 6.944-4.282 0-7.332-3.116-7.332-6.897Zm10.157 0v-.048c0-1.62-1.179-2.996-2.83-2.996-1.65 0-2.778 1.35-2.778 2.944v.048c0 1.62 1.18 2.996 2.83 2.996 1.651 0 2.778-1.35 2.778-2.945ZM127.143 20.386v-.048c0-2.75 2.091-4.173 5.215-4.173 1.231 0 2.437.246 3.197.518v-.22c0-1.375-.86-2.16-2.657-2.16-1.4 0-2.484.272-3.664.737l-.959-3.289c1.499-.612 3.098-1.03 5.388-1.03 2.289 0 4.009.565 5.067 1.62 1.007.984 1.426 2.359 1.426 4.22v7.635h-4.623v-1.375c-.911 1.004-2.164 1.668-3.91 1.668-2.531 0-4.475-1.448-4.475-4.1m8.463-1.004v-.612c-.466-.198-1.132-.345-1.819-.345-1.352 0-2.138.664-2.138 1.647v.047c0 .91.691 1.449 1.646 1.449 1.352 0 2.311-.858 2.311-2.186ZM141.534 22.52l1.745-2.824c1.525 1.004 3.197 1.521 4.575 1.521.813 0 1.18-.245 1.18-.71v-.048c0-.513-.739-.737-2.139-1.13-2.631-.69-4.722-1.573-4.722-4.246v-.047c0-2.823 2.264-4.393 5.34-4.393 1.944 0 3.962.565 5.487 1.548l-1.599 2.944c-1.378-.763-2.877-1.228-3.935-1.228-.713 0-1.081.267-1.081.637v.048c0 .513.761.759 2.165 1.177 2.631.737 4.722 1.642 4.722 4.22v.047c0 2.923-2.19 4.44-5.435 4.44-2.238 0-4.45-.638-6.295-1.961M155.752 20.067v-5.402h-1.572v-3.754h1.572V7.548h4.675v3.363h3.098v3.754h-3.098v4.492c0 .931.419 1.323 1.279 1.323.613 0 1.205-.172 1.771-.44v3.656c-.838.466-1.944.763-3.249.763-2.804 0-4.476-1.228-4.476-4.392ZM51.45 34.387v-.04c0-3.693 2.766-6.75 6.62-6.75 2.371 0 3.793.84 5.102 2.07l-1.011 1.081c-1.102-1.043-2.337-1.789-4.113-1.789-2.9 0-5.064 2.35-5.064 5.35v.039c0 3.022 2.186 5.388 5.064 5.388 1.793 0 2.972-.69 4.225-1.884l.972.953c-1.365 1.38-2.86 2.293-5.232 2.293-3.776 0-6.558-2.965-6.558-6.711M65.397 31.235h1.438v2.518c.709-1.604 2.113-2.759 3.945-2.686v1.548h-.112c-2.113 0-3.833 1.513-3.833 4.418v3.841h-1.438v-9.643.004ZM76.63 39.853c1.326 0 2.26-.544 3.046-1.363l.898.802c-.972 1.082-2.151 1.81-3.983 1.81-2.653 0-4.822-2.034-4.822-5.034 0-2.798 1.962-5.035 4.636-5.035 2.86 0 4.506 2.276 4.506 5.108 0 .13 0 .28-.017.504H73.23c.207 2.035 1.702 3.208 3.4 3.208Zm2.821-4.367c-.168-1.755-1.18-3.246-3.085-3.246-1.663 0-2.933 1.38-3.14 3.246h6.225ZM82.687 36.085v-.035c0-3.15 2.299-5.017 4.614-5.017 1.793 0 2.955.97 3.703 2.052v-5.82h1.438v13.613h-1.438v-1.94c-.782 1.156-1.927 2.143-3.703 2.143-2.316 0-4.614-1.828-4.614-5m8.373-.018v-.038c0-2.22-1.702-3.712-3.495-3.712-1.793 0-3.4 1.38-3.4 3.712v.038c0 2.276 1.568 3.729 3.4 3.729 1.832 0 3.495-1.509 3.495-3.729ZM95.696 27.546h1.646v1.586h-1.646v-1.586Zm.095 3.694h1.438v9.639h-1.438v-9.64ZM101.083 38.322v-5.82h-1.348v-1.267h1.348v-2.91h1.438v2.91h3.063v1.268h-3.063v5.634c0 1.176.657 1.603 1.625 1.603.484 0 .898-.09 1.404-.336v1.233c-.506.263-1.046.41-1.737.41-1.551 0-2.73-.764-2.73-2.725ZM112.372 35.413v-7.591h1.477v7.496c0 2.815 1.495 4.401 4.001 4.401 2.506 0 3.944-1.453 3.944-4.306v-7.591h1.478V35.3c0 3.806-2.186 5.78-5.457 5.78-3.27 0-5.439-1.979-5.439-5.668M126.521 31.235h1.439v1.677c.635-1.043 1.646-1.883 3.309-1.883 2.337 0 3.703 1.564 3.703 3.858v5.987h-1.439v-5.63c0-1.789-.972-2.91-2.674-2.91-1.703 0-2.899 1.212-2.899 3.022v5.518h-1.439v-9.643.004ZM138.078 27.27h1.646v1.587h-1.646V27.27Zm.095 3.695h1.439v9.638h-1.439v-9.638ZM142.355 36.102v-.034c0-2.725 2.13-5.035 5.046-5.035 2.916 0 5.029 2.276 5.029 4.996v.039a5.014 5.014 0 0 1-5.063 5.035c-2.912 0-5.012-2.276-5.012-5Zm8.598 0v-.034c0-2.07-1.551-3.768-3.591-3.768-2.039 0-3.534 1.699-3.534 3.729v.039c0 2.069 1.534 3.75 3.569 3.75s3.551-1.681 3.551-3.711M155.031 31.235h1.439v1.677c.635-1.043 1.646-1.883 3.309-1.883 2.338 0 3.703 1.564 3.703 3.858v5.987h-1.439v-5.63c0-1.789-.972-2.91-2.674-2.91s-2.899 1.212-2.899 3.022v5.518h-1.439v-9.643.004Z" fill="#25272D"/>
  <path d="M0 24.002C0 11.252 10.36.91 23.14.91c12.78 0 23.144 10.337 23.144 23.092 0 12.756-10.36 23.088-23.144 23.088C10.356 47.09 0 36.753 0 24.002Z" fill="#FFE115"/>
  <path d="M0 24.006C0 12.86 9.055 3.828 20.224 3.828c11.168 0 20.219 9.035 20.219 20.178 0 11.144-9.056 20.175-20.22 20.175C9.06 44.18 0 35.145 0 24.007Z" fill="#FAC934"/>
  <path d="M5.98 24.002c0-9.496 7.715-17.195 17.233-17.195s17.234 7.699 17.234 17.195c0 9.497-7.716 17.195-17.234 17.195S5.98 33.5 5.98 24.002Z" fill="#F7943E"/>
  <path d="M5.98 24.002c0-7.927 6.441-14.355 14.386-14.355 7.945 0 14.387 6.428 14.387 14.355 0 7.927-6.442 14.354-14.387 14.354S5.98 31.93 5.98 24.002Z" fill="#EB762A"/>
  <path d="M14.318 24.002c0-5.63 4.57-10.194 10.213-10.194 5.642 0 10.217 4.565 10.217 10.194 0 5.63-4.57 10.195-10.217 10.195s-10.213-4.565-10.213-10.195Z" fill="#E05D24"/>
</svg>